<svg width="680" height="716" xmlns="http://www.w3.org/2000/svg" xmlns:xlink="http://www.w3.org/1999/xlink" overflow="hidden"><defs><clipPath id="clip0"><rect x="3676" y="433" width="680" height="716"/></clipPath></defs><g clip-path="url(#clip0)" transform="translate(-3676 -433)"><rect x="0" y="0" width="402" height="106" stroke="#2F528F" stroke-width="4.58333" stroke-miterlimit="8" fill="#4472C4" transform="matrix(-1 0 0 1 4353.5 1040.5)"/><text fill="#FFFFFF" font-family="Calibri,Calibri_MSFontService,sans-serif" font-weight="400" font-size="28" transform="matrix(1 0 0 1 4041.56 1103)">Compute &amp; Storage</text><rect x="0" y="0" width="206" height="150" stroke="#41719C" stroke-width="4.58333" stroke-miterlimit="8" fill="#5B9BD5" transform="matrix(-1 0 0 1 4353.5 713.5)"/><text fill="#FFFFFF" font-family="Calibri,Calibri_MSFontService,sans-serif" font-weight="400" font-size="28" transform="matrix(1 0 0 1 4206.29 781)">Sensors <tspan font-size="28" x="-21.4727" y="33">subsystems</tspan></text><rect x="0" y="0" width="257" height="106" stroke="#AE5A21" stroke-width="4.58333" stroke-miterlimit="8" fill="#ED7D31" transform="matrix(-1 0 0 1 3935.5 1040.5)"/><text fill="#FFFFFF" font-family="Calibri,Calibri_MSFontService,sans-serif" font-weight="400" font-size="28" transform="matrix(1 0 0 1 3717.68 1103)">Comms<tspan font-size="28" x="83.646" y="0">-</tspan>bearers</text><rect x="0" y="0" width="206" height="150" stroke="#41719C" stroke-width="4.58333" stroke-miterlimit="8" fill="#5B9BD5" transform="matrix(-1 0 0 1 4353.5 878.5)"/><text fill="#FFFFFF" font-family="Calibri,Calibri_MSFontService,sans-serif" font-weight="400" font-size="28" transform="matrix(1 0 0 1 4208.89 946)">Vehicle <tspan font-size="28" x="-18.6313" y="33">subsystem</tspan></text><rect x="0" y="0" width="206" height="150" stroke="#41719C" stroke-width="4.58333" stroke-miterlimit="8" stroke-opacity="0.2" fill="#5B9BD5" fill-opacity="0.2" transform="matrix(-1 0 0 1 4353.5 554.5)"/><text fill="#FFFFFF" font-family="Calibri,Calibri_MSFontService,sans-serif" font-weight="400" font-size="28" transform="matrix(1 0 0 1 4199.71 622)">Effectors <tspan font-size="28" x="-14.8955" y="33">subsystems</tspan></text><rect x="3678.5" y="435.5" width="675" height="106" stroke="#507E32" stroke-width="4.58333" stroke-miterlimit="8" stroke-opacity="0.2" fill="#70AD47" fill-opacity="0.2"/><text fill="#FFFFFF" font-family="Calibri,Calibri_MSFontService,sans-serif" font-weight="400" font-size="28" transform="matrix(1 0 0 1 3944.72 498)">UI Hardware</text></g></svg>