<svg width="3980" height="1622" xmlns="http://www.w3.org/2000/svg" xmlns:xlink="http://www.w3.org/1999/xlink" overflow="hidden"><defs><clipPath id="clip0"><rect x="236" y="550" width="3980" height="1622"/></clipPath></defs><g clip-path="url(#clip0)" transform="translate(-236 -550)"><path d="M236 1167C236 905.769 526.12 694 884 694 1241.88 694 1532 905.769 1532 1167 1532 1428.23 1241.88 1640 884 1640 526.12 1640 236 1428.23 236 1167Z" fill="#3656DA" fill-rule="evenodd" fill-opacity="0.509804"/><text fill="#FFFFFF" font-family="Seaford,Seaford_MSFontService,sans-serif" font-weight="700" font-size="110" transform="matrix(1 0 0 1 777.234 958)">RD1</text><path d="M1532 1023.5C1532 761.993 1822.12 550 2180 550 2537.88 550 2828 761.993 2828 1023.5 2828 1285.01 2537.88 1497 2180 1497 1822.12 1497 1532 1285.01 1532 1023.5Z" fill="#5432CC" fill-rule="evenodd" fill-opacity="0.509804"/><text fill="#FFFFFF" font-family="Seaford,Seaford_MSFontService,sans-serif" font-weight="700" font-size="110" transform="matrix(1 0 0 1 2073.4 814)">RD3</text><path d="M806 1604C806 1342.77 1096.34 1131 1454.5 1131 1812.66 1131 2103 1342.77 2103 1604 2103 1865.23 1812.66 2077 1454.5 2077 1096.34 2077 806 1865.23 806 1604Z" fill="#2CB3AF" fill-rule="evenodd" fill-opacity="0.509804"/><text fill="#FFFFFF" font-family="Seaford,Seaford_MSFontService,sans-serif" font-weight="700" font-size="110" transform="matrix(1 0 0 1 1347.89 1899)">RD2</text><path d="M2149 1198.5C2149 996.088 2534.93 832 3011 832 3487.07 832 3873 996.088 3873 1198.5 3873 1400.91 3487.07 1565 3011 1565 2534.93 1565 2149 1400.91 2149 1198.5Z" fill="#C824BF" fill-rule="evenodd" fill-opacity="0.509804"/><text fill="#FFFFFF" font-family="Seaford,Seaford_MSFontService,sans-serif" font-weight="700" font-size="110" transform="matrix(1 0 0 1 2901.66 1065)">RDn</text><path d="M367 1075C367 1033.03 405.504 999 453 999 500.497 999 539 1033.03 539 1075 539 1116.97 500.497 1151 453 1151 405.504 1151 367 1116.97 367 1075Z" fill="#4B2B4B" fill-rule="evenodd"/><path d="M414 1243.5C414 1201.25 452.727 1167 500.5 1167 548.273 1167 587 1201.25 587 1243.5 587 1285.75 548.273 1320 500.5 1320 452.727 1320 414 1285.75 414 1243.5Z" fill="#4B2B4B" fill-rule="evenodd"/><path d="M611 1075C611 1033.03 649.503 999 697 999 744.496 999 783 1033.03 783 1075 783 1116.97 744.496 1151 697 1151 649.503 1151 611 1116.97 611 1075Z" fill="#FFC000" fill-rule="evenodd"/><path d="M614 1293.5C614 1251.25 652.503 1217 700 1217 747.497 1217 786 1251.25 786 1293.5 786 1335.75 747.497 1370 700 1370 652.503 1370 614 1335.75 614 1293.5Z" fill="#866B6B" fill-rule="evenodd"/><path d="M911 1496.5C911 1454.25 949.503 1420 997 1420 1044.5 1420 1083 1454.25 1083 1496.5 1083 1538.75 1044.5 1573 997 1573 949.503 1573 911 1538.75 911 1496.5Z" fill="#4B2B4B" fill-rule="evenodd"/><path d="M1055 1306C1055 1264.03 1093.5 1230 1141 1230 1188.5 1230 1227 1264.03 1227 1306 1227 1347.97 1188.5 1382 1141 1382 1093.5 1382 1055 1347.97 1055 1306Z" fill="#866B6B" fill-rule="evenodd"/><path d="M915 1066.5C915 1024.25 953.727 990 1001.5 990 1049.27 990 1088 1024.25 1088 1066.5 1088 1108.75 1049.27 1143 1001.5 1143 953.727 1143 915 1108.75 915 1066.5Z" fill="#866B6B" fill-rule="evenodd"/><path d="M1280 1262.5C1280 1220.25 1318.5 1186 1366 1186 1413.5 1186 1452 1220.25 1452 1262.5 1452 1304.75 1413.5 1339 1366 1339 1318.5 1339 1280 1304.75 1280 1262.5Z" fill="#FFC000" fill-rule="evenodd"/><path d="M1055 1728.5C1055 1686.25 1093.5 1652 1141 1652 1188.5 1652 1227 1686.25 1227 1728.5 1227 1770.75 1188.5 1805 1141 1805 1093.5 1805 1055 1770.75 1055 1728.5Z" fill="#FFC000" fill-rule="evenodd"/><path d="M1351 1603.5C1351 1561.25 1389.5 1527 1437 1527 1484.5 1527 1523 1561.25 1523 1603.5 1523 1645.75 1484.5 1680 1437 1680 1389.5 1680 1351 1645.75 1351 1603.5Z" fill="#866B6B" fill-rule="evenodd"/><path d="M1627 1603.5C1627 1561.25 1665.5 1527 1713 1527 1760.5 1527 1799 1561.25 1799 1603.5 1799 1645.75 1760.5 1680 1713 1680 1665.5 1680 1627 1645.75 1627 1603.5Z" fill="#4B2B4B" fill-rule="evenodd"/><path d="M1492 1395C1492 1353.03 1530.5 1319 1578 1319 1625.5 1319 1664 1353.03 1664 1395 1664 1436.97 1625.5 1471 1578 1471 1530.5 1471 1492 1436.97 1492 1395Z" fill="#4B2B4B" fill-rule="evenodd"/><path d="M1723 1307.5C1723 1265.25 1761.5 1231 1809 1231 1856.5 1231 1895 1265.25 1895 1307.5 1895 1349.75 1856.5 1384 1809 1384 1761.5 1384 1723 1349.75 1723 1307.5Z" fill="#866B6B" fill-rule="evenodd"/><path d="M1635 998.5C1635 956.25 1673.5 922 1721 922 1768.5 922 1807 956.25 1807 998.5 1807 1040.75 1768.5 1075 1721 1075 1673.5 1075 1635 1040.75 1635 998.5Z" fill="#4B2B4B" fill-rule="evenodd"/><path d="M1786 849.5C1786 807.25 1824.5 773 1872 773 1919.5 773 1958 807.25 1958 849.5 1958 891.75 1919.5 926 1872 926 1824.5 926 1786 891.75 1786 849.5Z" fill="#FFC000" fill-rule="evenodd"/><path d="M1890 1074.5C1890 1032.25 1928.5 998 1976 998 2023.5 998 2062 1032.25 2062 1074.5 2062 1116.75 2023.5 1151 1976 1151 1928.5 1151 1890 1116.75 1890 1074.5Z" fill="#4B2B4B" fill-rule="evenodd"/><path d="M2078 946.5C2078 904.25 2116.5 870 2164 870 2211.5 870 2250 904.25 2250 946.5 2250 988.75 2211.5 1023 2164 1023 2116.5 1023 2078 988.75 2078 946.5Z" fill="#866B6B" fill-rule="evenodd"/><path d="M2407 772.5C2407 730.25 2445.5 696 2493 696 2540.5 696 2579 730.25 2579 772.5 2579 814.75 2540.5 849 2493 849 2445.5 849 2407 814.75 2407 772.5Z" fill="#4B2B4B" fill-rule="evenodd"/><path d="M2269 1139.5C2269 1097.25 2307.5 1063 2355 1063 2402.5 1063 2441 1097.25 2441 1139.5 2441 1181.75 2402.5 1216 2355 1216 2307.5 1216 2269 1181.75 2269 1139.5Z" fill="#4B2B4B" fill-rule="evenodd"/><path d="M2499 1024.5C2499 982.25 2537.5 948 2585 948 2632.5 948 2671 982.25 2671 1024.5 2671 1066.75 2632.5 1101 2585 1101 2537.5 1101 2499 1066.75 2499 1024.5Z" fill="#FFC000" fill-rule="evenodd"/><path d="M2355 1307.5C2355 1265.25 2393.5 1231 2441 1231 2488.5 1231 2527 1265.25 2527 1307.5 2527 1349.75 2488.5 1384 2441 1384 2393.5 1384 2355 1349.75 2355 1307.5Z" fill="#866B6B" fill-rule="evenodd"/><path d="M1648 1836.5C1648 1794.25 1686.5 1760 1734 1760 1781.5 1760 1820 1794.25 1820 1836.5 1820 1878.75 1781.5 1913 1734 1913 1686.5 1913 1648 1878.75 1648 1836.5Z" fill="#FFC000" fill-rule="evenodd"/><path d="M2722 1359.5C2722 1317.25 2760.5 1283 2808 1283 2855.5 1283 2894 1317.25 2894 1359.5 2894 1401.75 2855.5 1436 2808 1436 2760.5 1436 2722 1401.75 2722 1359.5Z" fill="#FFC000" fill-rule="evenodd"/><path d="M2917 1242.5C2917 1200.25 2955.5 1166 3003 1166 3050.5 1166 3089 1200.25 3089 1242.5 3089 1284.75 3050.5 1319 3003 1319 2955.5 1319 2917 1284.75 2917 1242.5Z" fill="#866B6B" fill-rule="evenodd"/><path d="M2905 1458.5C2905 1416.25 2943.5 1382 2991 1382 3038.5 1382 3077 1416.25 3077 1458.5 3077 1500.75 3038.5 1535 2991 1535 2943.5 1535 2905 1500.75 2905 1458.5Z" fill="#4B2B4B" fill-rule="evenodd"/><path d="M3144 1343.5C3144 1301.25 3182.5 1267 3230 1267 3277.5 1267 3316 1301.25 3316 1343.5 3316 1385.75 3277.5 1420 3230 1420 3182.5 1420 3144 1385.75 3144 1343.5Z" fill="#4B2B4B" fill-rule="evenodd"/><path d="M3423 1369.5C3423 1327.25 3461.5 1293 3509 1293 3556.5 1293 3595 1327.25 3595 1369.5 3595 1411.75 3556.5 1446 3509 1446 3461.5 1446 3423 1411.75 3423 1369.5Z" fill="#866B6B" fill-rule="evenodd"/><path d="M3369 1100.5C3369 1058.25 3407.5 1024 3455 1024 3502.5 1024 3541 1058.25 3541 1100.5 3541 1142.75 3502.5 1177 3455 1177 3407.5 1177 3369 1142.75 3369 1100.5Z" fill="#4B2B4B" fill-rule="evenodd"/><path d="M2534 1202C2534 1160.03 2572.5 1126 2620 1126 2667.5 1126 2706 1160.03 2706 1202 2706 1243.97 2667.5 1278 2620 1278 2572.5 1278 2534 1243.97 2534 1202Z" fill="#866B6B" fill-rule="evenodd"/><path d="M3179 974.5C3179 932.25 3217.5 898 3265 898 3312.5 898 3351 932.25 3351 974.5 3351 1016.75 3312.5 1051 3265 1051 3217.5 1051 3179 1016.75 3179 974.5Z" fill="#866B6B" fill-rule="evenodd"/><text font-family="Seaford,Seaford_MSFontService,sans-serif" font-weight="400" font-size="92" transform="matrix(1 0 0 1 2475.59 1781)">Technology</text><path d="M2244 1752.5C2244 1710.25 2282.5 1676 2330 1676 2377.5 1676 2416 1710.25 2416 1752.5 2416 1794.75 2377.5 1829 2330 1829 2282.5 1829 2244 1794.75 2244 1752.5Z" fill="#4B2B4B" fill-rule="evenodd"/><path d="M2244 1922C2244 1880.03 2282.5 1846 2330 1846 2377.5 1846 2416 1880.03 2416 1922 2416 1963.97 2377.5 1998 2330 1998 2282.5 1998 2244 1963.97 2244 1922Z" fill="#866B6B" fill-rule="evenodd"/><text font-family="Seaford,Seaford_MSFontService,sans-serif" font-weight="400" font-size="92" transform="matrix(1 0 0 1 2475.59 1946)">Services</text><path d="M2244 2095.5C2244 2053.25 2282.5 2019 2330 2019 2377.5 2019 2416 2053.25 2416 2095.5 2416 2137.75 2377.5 2172 2330 2172 2282.5 2172 2244 2137.75 2244 2095.5Z" fill="#FFC000" fill-rule="evenodd"/><text font-family="Seaford,Seaford_MSFontService,sans-serif" font-weight="400" font-size="92" transform="matrix(1 0 0 1 2473.66 2096)">Components</text></g></svg>