<svg width="4189" height="2348" xmlns="http://www.w3.org/2000/svg" xmlns:xlink="http://www.w3.org/1999/xlink" overflow="hidden"><defs><clipPath id="clip0"><rect x="50" y="47" width="4189" height="2348"/></clipPath></defs><g clip-path="url(#clip0)" transform="translate(-50 -47)"><path d="M52.5001 158.5C52.5001 99.9579 131.522 52.5001 229 52.5001 326.478 52.5001 405.5 99.9579 405.5 158.5 405.5 217.042 326.478 264.5 229 264.5 131.522 264.5 52.5001 217.042 52.5001 158.5Z" stroke="#C55A11" stroke-width="4.58333" stroke-miterlimit="8" fill="#F4B183" fill-rule="evenodd"/><text fill="#843C0C" font-family="Calibri,Calibri_MSFontService,sans-serif" font-weight="400" font-size="83" transform="matrix(1 0 0 1 151.112 185)">User</text><path d="M3480.5 441C3480.5 366.165 3626.01 305.5 3805.5 305.5 3984.99 305.5 4130.5 366.165 4130.5 441 4130.5 515.835 3984.99 576.5 3805.5 576.5 3626.01 576.5 3480.5 515.835 3480.5 441Z" stroke="#C55A11" stroke-width="4.58333" stroke-miterlimit="8" fill="#F4B183" fill-rule="evenodd"/><text fill="#843C0C" font-family="Calibri,Calibri_MSFontService,sans-serif" font-weight="400" font-size="83" transform="matrix(1 0 0 1 3616.43 419)">Developer/<tspan font-size="83" x="9.99146" y="99">researcher</tspan></text><rect x="350.5" y="338.5" width="840" height="206" stroke="#2F528F" stroke-width="4.58333" stroke-miterlimit="8" fill="#4472C4"/><text fill="#FFFFFF" font-family="Calibri,Calibri_MSFontService,sans-serif" font-weight="400" font-size="83" transform="matrix(1 0 0 1 384.722 469)">Deployment Control UI</text><path d="M0 90.25 146.5 90.25 146.5 0 293 180.5 146.5 361 146.5 270.75 0 270.75Z" stroke="#2F528F" stroke-width="4.58333" stroke-miterlimit="8" fill="#4472C4" fill-rule="evenodd" transform="matrix(-1 0 0 1 3140.5 963.5)"/><text fill="#FFFFFF" font-family="Calibri,Calibri_MSFontService,sans-serif" font-weight="400" font-size="83" transform="matrix(1 0 0 1 2997.72 1171)">CI</text><rect x="1673" y="1266" width="70.0001" height="256" stroke="#C55A11" stroke-width="8.02083" stroke-miterlimit="8" fill="#F8CBAD"/><rect x="1942" y="1349" width="70.0001" height="256" stroke="#548235" stroke-width="8.02083" stroke-miterlimit="8" fill="#C5E0B4"/><rect x="1811" y="1262" width="71.0001" height="257" stroke="#2F528F" stroke-width="8.02083" stroke-miterlimit="8" fill="#B4C7E7"/><rect x="2071" y="1350" width="70.9998" height="257" stroke="#BF9000" stroke-width="8.02083" stroke-miterlimit="8" fill="#FFE699"/><rect x="2204" y="1262" width="69.9998" height="257" stroke="#2F5597" stroke-width="8.02083" stroke-miterlimit="8" fill="#BDD7EE"/><rect x="2332" y="1350" width="70.0002" height="257" stroke="#767171" stroke-width="8.02083" stroke-miterlimit="8" fill="#AFABAB"/><rect x="152.5" y="2005.5" width="536" height="374" stroke="#2F528F" stroke-width="4.58333" stroke-miterlimit="8" fill="#4472C4"/><text fill="#FFFFFF" font-family="Calibri,Calibri_MSFontService,sans-serif" font-weight="400" font-size="83" transform="matrix(1 0 0 1 262.35 2170)">Activated <tspan font-size="83" x="15.1708" y="99">Unit Cell</tspan></text><rect x="2473" y="1262" width="71.0002" height="257" stroke="#767171" stroke-width="8.02083" stroke-miterlimit="8" fill="#AFABAB"/><path d="M3485 1260.83C3485 1254.3 3490.3 1249 3496.83 1249L3544.17 1249C3550.7 1249 3556 1254.3 3556 1260.83L3556 1480.17C3556 1486.7 3550.7 1492 3544.17 1492L3496.83 1492C3490.3 1492 3485 1486.7 3485 1480.17Z" stroke="#C55A11" stroke-width="8.02083" stroke-miterlimit="8" fill="#FBE5D6" fill-rule="evenodd"/><path d="M3615 1260.83C3615 1254.3 3620.3 1249 3626.83 1249L3674.17 1249C3680.7 1249 3686 1254.3 3686 1260.83L3686 1480.17C3686 1486.7 3680.7 1492 3674.17 1492L3626.83 1492C3620.3 1492 3615 1486.7 3615 1480.17Z" stroke="#548235" stroke-width="8.02083" stroke-miterlimit="8" fill="#C5E0B4" fill-rule="evenodd"/><path d="M3751 1260.67C3751 1254.22 3756.22 1249 3762.67 1249L3809.33 1249C3815.78 1249 3821 1254.22 3821 1260.67L3821 1480.33C3821 1486.78 3815.78 1492 3809.33 1492L3762.67 1492C3756.22 1492 3751 1486.78 3751 1480.33Z" stroke="#2F528F" stroke-width="8.02083" stroke-miterlimit="8" fill="#B4C7E7" fill-rule="evenodd"/><path d="M3882 1257.83C3882 1251.3 3887.3 1246 3893.83 1246L3941.17 1246C3947.7 1246 3953 1251.3 3953 1257.83L3953 1477.17C3953 1483.7 3947.7 1489 3941.17 1489L3893.83 1489C3887.3 1489 3882 1483.7 3882 1477.17Z" stroke="#BF9000" stroke-width="8.02083" stroke-miterlimit="8" fill="#FFE699" fill-rule="evenodd"/><path d="M4012 1257.83C4012 1251.3 4017.3 1246 4023.83 1246L4071.17 1246C4077.7 1246 4083 1251.3 4083 1257.83L4083 1477.17C4083 1483.7 4077.7 1489 4071.17 1489L4023.83 1489C4017.3 1489 4012 1483.7 4012 1477.17Z" stroke="#2F5597" stroke-width="8.02083" stroke-miterlimit="8" fill="#BDD7EE" fill-rule="evenodd"/><path d="M3482.86 1901.18 3311.59 1901.18 3311.59 1191.5 3316.18 1196.08 3172.42 1196.08 3172.42 1186.92 3320.76 1186.92 3320.76 1896.6 3316.18 1892.01 3482.86 1892.01ZM3177 1205.25 3149.5 1191.5 3177 1177.75Z" fill="#4472C4"/><rect x="3676" y="2005" width="70.9998" height="256" stroke="#767171" stroke-width="8.02083" stroke-miterlimit="8" fill="#AFABAB"/><rect x="3811" y="2005" width="70.9998" height="256" stroke="#767171" stroke-width="8.02083" stroke-miterlimit="8" fill="#AFABAB"/><rect x="379" y="1542" width="70.9998" height="256" stroke="#BF9000" stroke-width="8.02083" stroke-miterlimit="8" fill="#FFE699"/><rect x="249" y="1540" width="71.0002" height="256" stroke="#548235" stroke-width="8.02083" stroke-miterlimit="8" fill="#C5E0B4"/><rect x="510" y="1540" width="69.9998" height="256" stroke="#767171" stroke-width="8.02083" stroke-miterlimit="8" fill="#AFABAB"/><path d="M2183.83 1658.5 2183.83 1745.58 1885.93 1745.58 1885.93 1692.33 1890.52 1696.91 1648.42 1696.91 1648.42 1687.74 1895.1 1687.74 1895.1 1741 1890.52 1736.42 2179.25 1736.42 2174.66 1741 2174.66 1658.5ZM1653 1706.08 1625.5 1692.33 1653 1678.58Z" fill="#4472C4"/><path d="M626.5 1799.5C626.5 1815.79 624.299 1829 621.584 1829L420.417 1829C417.701 1829 415.5 1842.21 415.5 1858.5 415.5 1842.21 413.299 1829 410.584 1829L209.416 1829C206.701 1829 204.5 1815.79 204.5 1799.5" stroke="#4472C4" stroke-width="9.16667" stroke-miterlimit="8" fill="none" fill-rule="evenodd"/><rect x="608" y="1107" width="147" height="155" stroke="#BF9000" stroke-width="8.02083" stroke-miterlimit="8" fill="#FFE699"/><rect x="453" y="1107" width="147" height="155" stroke="#548235" stroke-width="8.02083" stroke-miterlimit="8" fill="#C5E0B4"/><rect x="761" y="1107" width="148" height="155" stroke="#767171" stroke-width="8.02083" stroke-miterlimit="8" fill="#AFABAB"/><path d="M1704.51 809.5 1704.51 880.005 693.5 880.005 698.083 875.422 698.083 918.426 688.916 918.426 688.916 870.838 1699.93 870.838 1695.35 875.422 1695.35 809.5ZM707.25 913.843 693.5 941.343 679.75 913.843Z" fill="#4472C4"/><text font-family="Calibri,Calibri_MSFontService,sans-serif" font-weight="400" font-size="55" transform="matrix(1 0 0 1 341.207 1959)">Install<tspan font-size="55" x="325.623" y="-1844">Chooses</tspan></text><path d="M405.5 153.917 775.217 153.917 775.217 315.78 766.051 315.78 766.051 158.5 770.634 163.083 405.5 163.083ZM784.384 311.197 770.634 338.697 756.884 311.197Z" fill="#F4B183"/><path d="M1190.5 436.917 1530.03 436.917 1530.03 446.084 1190.5 446.083ZM1525.44 427.75 1552.94 441.5 1525.44 455.25Z" fill="#4472C4"/><path d="M1814.5 728.5C1814.5 750.868 1811.48 769 1807.75 769L1706.25 769C1702.52 769 1699.5 787.132 1699.5 809.5 1699.5 787.132 1696.48 769 1692.75 769L1591.25 769C1587.52 769 1584.5 750.867 1584.5 728.5" stroke="#4472C4" stroke-width="9.16667" stroke-miterlimit="8" fill="none" fill-rule="evenodd"/><path d="M2442.5 1611.5C2442.5 1624.48 2440.75 1635 2438.58 1635L2182.42 1635C2180.25 1635 2178.5 1645.52 2178.5 1658.5 2178.5 1645.52 2176.75 1635 2174.58 1635L1918.42 1635C1916.25 1635 1914.5 1624.48 1914.5 1611.5" stroke="#4472C4" stroke-width="9.16667" stroke-miterlimit="8" fill="none" fill-rule="evenodd"/><text font-family="Calibri,Calibri_MSFontService,sans-serif" font-weight="400" font-size="55" transform="matrix(1 0 0 1 1115.05 846)">Select<tspan font-size="55" x="206.992" y="-438">Select</tspan></text><path d="M6.93462e-06-4.58333 215.61-4.58301 215.61 4.58366-6.93462e-06 4.58333ZM211.026-13.7497 238.526 0.000360892 211.026 13.7503Z" fill="#4472C4" transform="matrix(-1 0 0 1 3379.03 1106.5)"/><path d="M2847.45 1148.15 2669.42 1148.09 2669.42 1138.92 2847.45 1138.99ZM2674 1157.26 2646.5 1143.5 2674 1129.76Z" fill="#4472C4"/><path d="M3810.08 576.477 3812.08 976.409 3802.91 976.455 3800.92 576.523ZM3821.22 971.78 3807.61 999.349 3793.72 971.917Z" fill="#F4B183"/><text font-family="Calibri,Calibri_MSFontService,sans-serif" font-weight="400" font-size="55" transform="matrix(1 0 0 1 3835.61 816)">Create/update<tspan font-size="55" x="-733.357" y="901">Update</tspan><tspan font-size="55" x="-2002.58" y="1013">Select</tspan><tspan font-size="55" x="-1109.35" y="574">Build/test/security check</tspan></text><path d="M3470.28 441.836 3063.31 441.836 3063.31 427.5 3067.89 432.083 2688.42 432.083 2688.42 422.917 3072.47 422.917 3072.47 437.253 3067.89 432.669 3470.28 432.669ZM2693 441.25 2665.5 427.5 2693 413.75Z" fill="#F4B183"/><text font-family="Calibri,Calibri_MSFontService,sans-serif" font-weight="400" font-size="55" transform="matrix(1 0 0 1 2927.18 408)">Configure</text><rect x="1598" y="572" width="202" height="158" stroke="#9855CB" stroke-width="8.02083" stroke-miterlimit="8" fill="#BA8CDC"/><rect x="394" y="941" width="597" height="253" stroke="#9855CB" stroke-width="8.02083" stroke-miterlimit="8" fill="#BA8CDC"/><text fill="#FFFFFF" font-family="Calibri,Calibri_MSFontService,sans-serif" font-weight="400" font-size="83" transform="matrix(1 0 0 1 494.7 1045)">Component <tspan font-size="83" x="90.9562" y="99">Config</tspan></text><rect x="1845" y="575" width="202" height="158" stroke="#33D5D1" stroke-width="8.02083" stroke-miterlimit="8" fill="#9AEAE8"/><rect x="2091" y="575" width="202" height="158" stroke="#E1A347" stroke-width="8.02083" stroke-miterlimit="8" fill="#F0D1A4"/><rect x="2335" y="571" width="202" height="158" stroke="#D66897" stroke-width="8.02083" stroke-miterlimit="8" fill="#EAB2CA"/><rect x="1553.5" y="295.5" width="1078" height="292" stroke="#2F528F" stroke-width="4.58333" stroke-miterlimit="8" fill="#4472C4"/><text fill="#FFFFFF" font-family="Calibri,Calibri_MSFontService,sans-serif" font-weight="400" font-size="83" transform="matrix(1 0 0 1 1588.76 469)">Component Config Repository</text><rect x="1567.5" y="1011.5" width="1079" height="277" stroke="#2F528F" stroke-width="4.58333" stroke-miterlimit="8" fill="#4472C4"/><text fill="#FFFFFF" font-family="Calibri,Calibri_MSFontService,sans-serif" font-weight="400" font-size="83" transform="matrix(1 0 0 1 1793.6 1177)">Artifact Repository</text><rect x="3379.5" y="999.5" width="857" height="289" stroke="#2F528F" stroke-width="4.58333" stroke-miterlimit="8" fill="#4472C4"/><text fill="#FFFFFF" font-family="Calibri,Calibri_MSFontService,sans-serif" font-weight="400" font-size="83" transform="matrix(1 0 0 1 3532.05 1171)">Code Repository</text><path d="M956.5 1244.92 1023.89 1244.92 1023.89 1631.82 1019.31 1627.24 1059.2 1627.24 1059.2 1636.4 1014.73 1636.4 1014.73 1249.5 1019.31 1254.08 956.5 1254.08ZM1054.62 1618.07 1082.12 1631.82 1054.62 1645.57Z" fill="#4472C4"/><text font-family="Calibri,Calibri_MSFontService,sans-serif" font-weight="400" font-size="55" transform="matrix(1 0 0 1 873.676 1408)">Select</text><rect x="1098.5" y="1586.5" width="527" height="213" stroke="#2F528F" stroke-width="4.58333" stroke-miterlimit="8" fill="#4472C4"/><text fill="#FFFFFF" font-family="Calibri,Calibri_MSFontService,sans-serif" font-weight="400" font-size="83" transform="matrix(1 0 0 1 1148.98 1720)">Orchestrator</text><path d="M1102.21 1748.42 861.272 1748.42 861.272 1660.5 865.855 1665.08 652.417 1665.08 652.417 1655.92 870.438 1655.92 870.438 1743.84 865.855 1739.26 1102.21 1739.26ZM657 1674.25 629.5 1660.5 657 1646.75Z" fill="#4472C4"/><text font-family="Calibri,Calibri_MSFontService,sans-serif" font-weight="400" font-size="55" transform="matrix(1 0 0 1 744.627 1616)">Compose<tspan font-size="55" x="3.09393" y="731">HW/VM</tspan></text><rect x="3482.5" y="1739.5" width="604" height="321" stroke="#2F528F" stroke-width="4.58333" stroke-miterlimit="8" fill="#4472C4"/><text fill="#FFFFFF" font-family="Calibri,Calibri_MSFontService,sans-serif" font-weight="400" font-size="83" transform="matrix(1 0 0 1 3646.77 1878)">External <tspan font-size="83" x="-2.9563" y="99">Artifacts</tspan></text></g></svg>